# File created by Blade
# Date/Time:  Wed Jan 21 16:09:50 2015
#---------------------------------------------------------
:version 1.10
:name HOM
:units
  mass 1.0
  length 1.000000
  angle deg
:documentation
     Acclaim Skeleton File
:root
   axis xyz
   order TX TY TZ RX RY RZ
   position 0.000000 0.000000 0.000000
   orientation 0 0 0
:bonedata
   begin
      id 1
      name Spine_dum
      direction 0.000000 1.000000 0.000000
      length 7.067664
      axis 0.0 0.0 0.0 xyz
   end
   begin
      id 2
      name LeftUpLeg_dum
      direction 1.000000 0.000000 0.000000
      length 4.013002
      axis 0.0 0.0 0.0 xyz
   end
   begin
      id 3
      name RightUpLeg_dum
      direction -1.000000 0.000000 0.000000
      length 4.013002
      axis 0.0 0.0 0.0 xyz
   end
   begin
      id 4
      name Spine
      direction 0.000000 1.000000 0.000000
      length 0.000000
      axis 0.0 0.0 0.0 xyz
      dof rx ry rz
   end
   begin
      id 5
      name Spine_dum1
      direction 0.000000 1.000000 0.000000
      length 15.039886
      axis 0.0 0.0 0.0 xyz
   end
   begin
      id 6
      name Spine_dum2
      direction 0.000000 1.000000 0.000000
      length 10.530368
      axis 0.0 0.0 0.0 xyz
   end
   begin
      id 7
      name Spine_dum3
      direction 0.000000 1.000000 0.000000
      length 10.530368
      axis 0.0 0.0 0.0 xyz
   end
   begin
      id 8
      name Head
      direction 0.000000 1.000000 0.000000
      length 4.527550
      axis 0.0 0.0 0.0 xyz
      dof rx ry rz
   end
   begin
      id 9
      name LeftShoulder
      direction 1.000000 0.000000 0.000000
      length 7.028855
      axis 0.0 0.0 -90.0 xyz
      dof rx ry rz
   end
   begin
      id 10
      name LeftArm
      direction 1.000000 0.000000 0.000000
      length 10.797705
      axis 0.0 0.0 -90.0 xyz
      dof rx ry rz
   end
   begin
      id 11
      name LeftForeArm
      direction 1.000000 0.000000 0.000000
      length 7.907442
      axis 0.0 0.0 -90.0 xyz
      dof ry rz rx
   end
   begin
      id 12
      name LeftHand
      direction 0.000000 0.000000 0.000000
      length 0.000000
      axis 0.0 0.0 -90.0 xyz
      dof rx ry rz
   end
   begin
      id 13
      name LeftHand_dum1
      direction 0.000000 0.000000 0.000000
      length 0.000000
      axis 0.0 0.0 -90.0 xyz
   end
   begin
      id 14
      name LeftHand_dum2
      direction 1.000000 0.000000 0.000000
      length 3.937000
      axis 0.0 0.0 -90.0 xyz
   end
   begin
      id 15
      name LeftHandThumb1
      direction 0.000000 0.000000 1.000000
      length 3.937000
      axis 0.0 0.0 -90.0 xyz
      dof rx rz ry
   end
   begin
      id 16
      name RightShoulder
      direction -1.000000 0.000000 0.000000
      length 7.028855
      axis 0.0 0.0 90.0 xyz
      dof rx ry rz
   end
   begin
      id 17
      name RightArm
      direction -1.000000 0.000000 0.000000
      length 10.797705
      axis 0.0 0.0 90.0 xyz
      dof rx ry rz
   end
   begin
      id 18
      name RightForeArm
      direction -1.000000 0.000000 0.000000
      length 7.907442
      axis 0.0 0.0 90.0 xyz
      dof ry rz rx
   end
   begin
      id 19
      name RightHand
      direction 0.000000 0.000000 0.000000
      length 0.000000
      axis 0.0 0.0 90.0 xyz
      dof rx ry rz
   end
   begin
      id 20
      name RightHand_dum1
      direction 0.000000 0.000000 0.000000
      length 0.000000
      axis 0.0 0.0 90.0 xyz
   end
   begin
      id 21
      name RightHand_dum2
      direction -1.000000 0.000000 0.000000
      length 3.937000
      axis 0.0 0.0 90.0 xyz
   end
   begin
      id 22
      name RightHandThumb1
      direction 0.000000 0.000000 1.000000
      length 3.937000
      axis 0.0 0.0 90.0 xyz
      dof rx rz ry
   end
   begin
      id 23
      name LeftUpLeg
      direction 0.000000 -1.000000 0.000000
      length 16.899758
      axis 0.0 0.0 0.0 xyz
      dof rx ry rz
   end
   begin
      id 24
      name LeftLeg
      direction 0.000000 -1.000000 0.000000
      length 17.389183
      axis 0.0 0.0 0.0 xyz
      dof rx ry rz
   end
   begin
      id 25
      name LeftFoot
      direction 0.000000 -0.258819 0.965926
      length 4.924528
      axis 15.0 0.0 0.0 xyz
      dof rx ry rz
   end
   begin
      id 26
      name LeftToeBase
      direction 0.000000 0.000000 1.000000
      length 2.952750
      axis 0.0 0.0 0.0 xyz
      dof rx ry rz
   end
   begin
      id 27
      name RightUpLeg
      direction 0.000000 -1.000000 0.000000
      length 16.899758
      axis 0.0 0.0 0.0 xyz
      dof rx ry rz
   end
   begin
      id 28
      name RightLeg
      direction 0.000000 -1.000000 0.000000
      length 17.389183
      axis 0.0 0.0 0.0 xyz
      dof rx ry rz
   end
   begin
      id 29
      name RightFoot
      direction 0.000000 -0.258819 0.965926
      length 4.924528
      axis 15.0 0.0 0.0 xyz
      dof rx ry rz
   end
   begin
      id 30
      name RightToeBase
      direction 0.000000 0.000000 1.000000
      length 2.952750
      axis 0.0 0.0 0.0 xyz
      dof rx ry rz
   end
:hierarchy
   begin
      root Spine_dum LeftUpLeg_dum RightUpLeg_dum
      Spine_dum Spine
      LeftUpLeg_dum LeftUpLeg
      RightUpLeg_dum RightUpLeg
      Spine Spine_dum1 Spine_dum2 Spine_dum3
      Spine_dum1 Head
      Spine_dum2 LeftShoulder
      Spine_dum3 RightShoulder
      LeftShoulder LeftArm
      LeftArm LeftForeArm
      LeftForeArm LeftHand
      LeftHand LeftHand_dum1 LeftHand_dum2
      LeftHand_dum1 LeftHandThumb1
      RightShoulder RightArm
      RightArm RightForeArm
      RightForeArm RightHand
      RightHand RightHand_dum1 RightHand_dum2
      RightHand_dum1 RightHandThumb1
      LeftUpLeg LeftLeg
      LeftLeg LeftFoot
      LeftFoot LeftToeBase
      RightUpLeg RightLeg
      RightLeg RightFoot
      RightFoot RightToeBase
   end

# File created by Blade
# Date/Time:  Wed Jan 21 16:09:38 2015
# Frame Rate: 120.000 fps
#------------------------------------------------------
:FULLY-SPECIFIED
:DEGREES
62
root 19.212369 35.182882 -22.181084 -176.948196 0.141155 -175.807317
Spine -11.549263 1.037439 4.069445
Head 13.395518 -7.938510 1.762513
LeftShoulder -14.513120 -34.413366 19.648230
LeftArm -2.106727 3.898180 -10.212340
LeftForeArm 6.947503 -0.000000 -2.424263
LeftHand -10.009980 -0.000000 -3.374034
LeftHandThumb1 -26.253704 0.000000 33.147579
RightShoulder -13.069722 -5.876373 -9.085324
RightArm 5.605157 40.973270 16.020860
RightForeArm -31.630653 0.000000 6.011740
RightHand -6.761842 -0.000000 1.988033
RightHandThumb1 -24.326973 -0.000000 -32.862282
LeftUpLeg 9.216937 3.986492 7.649771
LeftLeg -13.555737 -0.000000 0.000000
LeftFoot -0.041720 25.623540 11.455694
LeftToeBase -138.113717 -0.000000 0.000000
RightUpLeg 3.004124 -6.952087 0.048181
RightLeg 0.678675 -0.000000 -0.000000
RightFoot -22.526622 -24.555275 17.222329
RightToeBase 23.603702 -0.000000 -0.000000
63
root 19.199768 35.188427 -22.159160 -176.973989 0.413667 -175.761547
Spine -11.354535 1.146993 4.148310
Head 13.744727 -8.511865 1.827862
LeftShoulder -14.593543 -34.234017 19.446545
LeftArm -2.367379 4.055802 -10.607268
LeftForeArm 6.987130 -0.000000 -2.333749
LeftHand -9.949083 -0.000000 -3.384737
LeftHandThumb1 -26.253704 0.000000 33.147579
RightShoulder -13.107062 -6.056981 -8.900860
RightArm 5.874185 40.721959 16.516720
RightForeArm -31.266290 -0.000000 6.081801
RightHand -6.783946 -0.000000 1.657894
RightHandThumb1 -24.326973 -0.000000 -32.862282
LeftUpLeg 9.242763 4.151754 7.643920
LeftLeg -13.495682 -0.000000 0.000000
LeftFoot 0.000073 25.782221 11.518605
LeftToeBase -138.080933 -0.000000 0.000000
RightUpLeg 2.729617 -6.757702 0.071793
RightLeg 1.118374 -0.000000 -0.000000
RightFoot -22.594899 -24.518129 17.224670
RightToeBase 23.620883 -0.000000 -0.000000
64
root 19.191634 35.194039 -22.138346 -177.009146 0.713784 -175.686044
Spine -11.148215 1.258921 4.252711
Head 14.127370 -9.064853 1.905600
LeftShoulder -14.697266 -34.016629 19.270495
LeftArm -2.626410 4.202479 -11.051871
LeftForeArm 7.084163 -0.000000 -2.251482
LeftHand -9.866179 -0.000000 -3.489252
LeftHandThumb1 -26.253704 0.000000 33.147579
RightShoulder -13.160437 -6.293949 -8.692147
RightArm 6.242568 40.631255 17.094348
RightForeArm -30.998437 0.000000 6.153963
RightHand -6.799202 -0.000000 1.492657
RightHandThumb1 -24.326973 -0.000000 -32.862282
LeftUpLeg 9.292635 4.371437 7.681428
LeftLeg -13.453003 -0.000000 0.000000
LeftFoot 0.049916 25.943936 11.601200
LeftToeBase -138.061914 -0.000000 0.000000
RightUpLeg 2.475845 -6.559120 0.132431
RightLeg 1.528598 -0.000000 -0.000000
RightFoot -22.588923 -24.468042 17.230913
RightToeBase 23.442804 -0.000000 -0.000000
65
root 19.181649 35.201257 -22.118551 -177.051653 1.013670 -175.598093
Spine -10.932706 1.352802 4.390675
Head 14.524807 -9.644211 1.952120
LeftShoulder -14.771483 -33.794169 19.021665
LeftArm -2.926656 4.363863 -11.447860
LeftForeArm 7.070040 -0.000000 -2.151937
LeftHand -9.833586 -0.000000 -3.631717
LeftHandThumb1 -26.253704 0.000000 33.147579
RightShoulder -13.219381 -6.513942 -8.479605
RightArm 6.661090 40.575341 17.693949
RightForeArm -30.952765 -0.000000 6.182608
RightHand -6.796764 -0.000000 1.239895
RightHandThumb1 -24.326973 -0.000000 -32.862282
LeftUpLeg 9.352145 4.561314 7.728788
LeftLeg -13.394823 -0.000000 0.000000
LeftFoot 0.093211 26.123575 11.636833
LeftToeBase -137.949597 -0.000000 0.000000
RightUpLeg 2.231610 -6.315256 0.210775
RightLeg 1.935880 -0.000000 -0.000000
RightFoot -22.608814 -24.512950 17.202512
RightToeBase 23.346418 -0.000000 -0.000000
66
root 19.173417 35.207543 -22.099835 -177.092391 1.330417 -175.506878
Spine -10.714921 1.446551 4.533947
Head 14.938004 -10.265264 1.985900
LeftShoulder -14.836579 -33.663655 18.793379
LeftArm -3.302061 4.579205 -11.852313
LeftForeArm 7.093192 -0.000000 -2.064583
LeftHand -9.809350 -0.000000 -3.706718
LeftHandThumb1 -26.253704 0.000000 33.147579
RightShoulder -13.264364 -6.652265 -8.325017
RightArm 7.034781 40.413412 18.328103
RightForeArm -30.875682 0.000000 6.221033
RightHand -6.784709 0.000000 0.971292
RightHandThumb1 -24.326973 -0.000000 -32.862282
LeftUpLeg 9.420759 4.738170 7.783127
LeftLeg -13.332715 -0.000000 0.000000
LeftFoot 0.124536 26.246930 11.670778
LeftToeBase -137.755817 -0.000000 0.000000
RightUpLeg 1.957788 -6.055590 0.289571
RightLeg 2.397097 -0.000000 -0.000000
RightFoot -22.610025 -24.511563 17.203780
RightToeBase 23.296419 -0.000000 -0.000000
67
root 19.161981 35.214675 -22.074952 -177.115901 1.694901 -175.416336
Spine -10.488317 1.549506 4.683247
Head 15.348520 -10.854401 2.055418
LeftShoulder -14.946868 -33.464809 18.582116
LeftArm -3.678548 4.756674 -12.320947
LeftForeArm 6.856345 -0.000000 -1.972656
LeftHand -9.838301 -0.000000 -3.667984
LeftHandThumb1 -26.253704 0.000000 33.147579
RightShoulder -13.287337 -6.793794 -8.148135
RightArm 7.432669 40.295305 18.974820
RightForeArm -30.800869 -0.000000 6.249453
RightHand -6.709309 -0.000000 0.720291
RightHandThumb1 -24.326973 -0.000000 -32.862282
LeftUpLeg 9.468422 5.010346 7.834801
LeftLeg -13.279387 -0.000000 0.000000
LeftFoot 0.107668 26.413801 11.737169
LeftToeBase -137.761357 -0.000000 0.000000
RightUpLeg 1.648491 -5.819620 0.370694
RightLeg 2.860573 -0.000000 -0.000000
RightFoot -22.626836 -24.524120 17.135141
RightToeBase 23.386551 -0.000000 -0.000000
68
root 19.150856 35.222133 -22.049481 -177.123305 2.074393 -175.324186
Spine -10.272049 1.679212 4.840396
Head 15.730027 -11.486433 2.106941
LeftShoulder -15.012230 -33.252457 18.356389
LeftArm -4.130868 4.976199 -12.844295
LeftForeArm 6.710130 0.000000 -1.844081
LeftHand -9.832302 -0.000000 -3.685604
LeftHandThumb1 -26.253704 0.000000 33.147579
RightShoulder -13.346124 -6.967743 -7.957898
RightArm 7.841995 40.281191 19.664677
RightForeArm -30.790669 0.000000 6.401292
RightHand -6.844955 -0.000000 0.592802
RightHandThumb1 -24.326973 -0.000000 -32.862282
LeftUpLeg 9.506267 5.287956 7.883936
LeftLeg -13.224691 -0.000000 0.000000
LeftFoot 0.140321 26.546442 11.797581
LeftToeBase -137.692983 -0.000000 0.000000
RightUpLeg 1.325406 -5.462063 0.463570
RightLeg 3.315504 -0.000000 -0.000000
RightFoot -22.632009 -24.626216 17.123037
RightToeBase 23.248869 -0.000000 -0.000000
69
root 19.141902 35.229553 -22.022181 -177.149946 2.493071 -175.229772
Spine -10.002629 1.823645 4.985060
Head 16.115410 -12.118148 2.182915
LeftShoulder -15.149307 -32.945984 18.168897
LeftArm -4.541036 5.107191 -13.462046
LeftForeArm 6.521780 -0.000000 -1.656293
LeftHand -9.996344 -0.000000 -3.565535
LeftHandThumb1 -26.253704 0.000000 33.147579
RightShoulder -13.384345 -7.094696 -7.801417
RightArm 8.212701 40.226034 20.419409
RightForeArm -30.637572 -0.000000 6.552515
RightHand -6.820688 -0.000000 0.473930
RightHandThumb1 -24.326973 -0.000000 -32.862282
LeftUpLeg 9.571100 5.589967 7.937921
LeftLeg -13.158072 -0.000000 0.000000
LeftFoot 0.206442 26.644033 11.825163
LeftToeBase -137.474616 -0.000000 0.000000
RightUpLeg 0.975241 -5.160541 0.558049
RightLeg 3.843103 -0.000000 -0.000000
RightFoot -22.647069 -24.658649 17.097574
RightToeBase 23.171304 -0.000000 -0.000000
70
root 19.133691 35.237307 -21.990816 -177.164394 2.973682 -175.125323
Spine -9.717047 2.040332 5.139467
Head 16.466737 -12.785976 2.262716
LeftShoulder -15.180987 -32.690750 17.915319
LeftArm -5.083236 5.179971 -14.051649
LeftForeArm 6.258817 0.000000 -1.438107
LeftHand -10.009376 -0.000000 -3.449632
LeftHandThumb1 -26.253704 0.000000 33.147579
RightShoulder -13.487791 -7.288493 -7.575792
RightArm 8.695419 40.333147 21.221913
RightForeArm -30.530562 -0.000000 6.708376
RightHand -6.791408 -0.000000 0.248369
RightHandThumb1 -24.326973 -0.000000 -32.862282
LeftUpLeg 9.635044 5.967382 8.007879
LeftLeg -13.105942 -0.000000 0.000000
LeftFoot 0.198994 26.805069 11.904285
LeftToeBase -137.462417 -0.000000 0.000000
RightUpLeg 0.616156 -4.702367 0.674080
RightLeg 4.340277 -0.000000 -0.000000
RightFoot -22.667251 -24.819583 17.135116
RightToeBase 23.095133 -0.000000 -0.000000
